<mxfile host="app.diagrams.net" modified="2020-12-21T08:40:09.536Z" agent="5.0 (Windows NT 10.0; Win64; x64) AppleWebKit/537.36 (KHTML, like Gecko) Chrome/87.0.4280.88 Safari/537.36" etag="FdTCrcUA4Oo8yNOU8Kw-" version="14.1.1" type="github">
  <diagram id="9WxLo_MRZ46a2GPlO-Ak" name="第 1 页">
    <mxGraphModel dx="1357" dy="640" grid="1" gridSize="10" guides="1" tooltips="1" connect="1" arrows="1" fold="1" page="1" pageScale="1" pageWidth="827" pageHeight="1169" math="0" shadow="0">
      <root>
        <mxCell id="0" />
        <mxCell id="1" parent="0" />
        <mxCell id="e46uIhdMRG2KNkabFdx9-1" value="客户端" style="rounded=1;whiteSpace=wrap;html=1;fillColor=#f8cecc;strokeColor=#b85450;" vertex="1" parent="1">
          <mxGeometry x="140" y="160" width="120" height="60" as="geometry" />
        </mxCell>
        <mxCell id="e46uIhdMRG2KNkabFdx9-2" value="服务端" style="rounded=1;whiteSpace=wrap;html=1;fillColor=#e1d5e7;strokeColor=#9673a6;" vertex="1" parent="1">
          <mxGeometry x="500" y="160" width="120" height="60" as="geometry" />
        </mxCell>
        <mxCell id="e46uIhdMRG2KNkabFdx9-3" value="" style="shape=link;html=1;exitX=0.5;exitY=1;exitDx=0;exitDy=0;" edge="1" parent="1" source="e46uIhdMRG2KNkabFdx9-1">
          <mxGeometry width="100" relative="1" as="geometry">
            <mxPoint x="260" y="350" as="sourcePoint" />
            <mxPoint x="200" y="660" as="targetPoint" />
          </mxGeometry>
        </mxCell>
        <mxCell id="e46uIhdMRG2KNkabFdx9-4" value="" style="shape=link;html=1;exitX=0.5;exitY=1;exitDx=0;exitDy=0;" edge="1" parent="1">
          <mxGeometry width="100" relative="1" as="geometry">
            <mxPoint x="559.5" y="220" as="sourcePoint" />
            <mxPoint x="559.5" y="660" as="targetPoint" />
          </mxGeometry>
        </mxCell>
        <mxCell id="e46uIhdMRG2KNkabFdx9-5" value="客户端发送syn报文，并置发送序号为X" style="text;html=1;strokeColor=none;fillColor=none;align=center;verticalAlign=middle;whiteSpace=wrap;rounded=0;" vertex="1" parent="1">
          <mxGeometry x="40" y="250" width="150" height="60" as="geometry" />
        </mxCell>
        <mxCell id="e46uIhdMRG2KNkabFdx9-6" value="" style="endArrow=classic;html=1;" edge="1" parent="1">
          <mxGeometry width="50" height="50" relative="1" as="geometry">
            <mxPoint x="200" y="270" as="sourcePoint" />
            <mxPoint x="560" y="350" as="targetPoint" />
          </mxGeometry>
        </mxCell>
        <mxCell id="e46uIhdMRG2KNkabFdx9-7" value="SYN=1，Seq=X" style="text;html=1;align=center;verticalAlign=middle;resizable=0;points=[];autosize=1;" vertex="1" parent="1">
          <mxGeometry x="260" y="270" width="100" height="20" as="geometry" />
        </mxCell>
        <mxCell id="e46uIhdMRG2KNkabFdx9-8" value="服务端发送Syn+ack报文，&lt;br&gt;并置发送序号为Y，确认后为X+1" style="text;html=1;align=center;verticalAlign=middle;resizable=0;points=[];autosize=1;" vertex="1" parent="1">
          <mxGeometry x="560" y="365" width="190" height="30" as="geometry" />
        </mxCell>
        <mxCell id="e46uIhdMRG2KNkabFdx9-9" value="" style="endArrow=classic;html=1;" edge="1" parent="1">
          <mxGeometry width="50" height="50" relative="1" as="geometry">
            <mxPoint x="560" y="390" as="sourcePoint" />
            <mxPoint x="200" y="450" as="targetPoint" />
          </mxGeometry>
        </mxCell>
        <mxCell id="e46uIhdMRG2KNkabFdx9-10" value="Syn=1，ACK=X+1，Seq+Y" style="text;html=1;align=center;verticalAlign=middle;resizable=0;points=[];autosize=1;" vertex="1" parent="1">
          <mxGeometry x="254" y="390" width="160" height="20" as="geometry" />
        </mxCell>
        <mxCell id="e46uIhdMRG2KNkabFdx9-11" value="" style="endArrow=classic;html=1;" edge="1" parent="1">
          <mxGeometry width="50" height="50" relative="1" as="geometry">
            <mxPoint x="200" y="540" as="sourcePoint" />
            <mxPoint x="560" y="620" as="targetPoint" />
          </mxGeometry>
        </mxCell>
        <mxCell id="e46uIhdMRG2KNkabFdx9-12" value="客户端发送ack保人，&lt;br&gt;并置发送序号为Z，&lt;br&gt;确认序号为Y+1" style="text;html=1;align=center;verticalAlign=middle;resizable=0;points=[];autosize=1;" vertex="1" parent="1">
          <mxGeometry x="65" y="525" width="130" height="50" as="geometry" />
        </mxCell>
        <mxCell id="e46uIhdMRG2KNkabFdx9-13" value="ACK=Y+1，Seq=Z" style="text;html=1;align=center;verticalAlign=middle;resizable=0;points=[];autosize=1;" vertex="1" parent="1">
          <mxGeometry x="274" y="540" width="120" height="20" as="geometry" />
        </mxCell>
        <mxCell id="e46uIhdMRG2KNkabFdx9-14" value="&lt;font style=&quot;font-size: 22px&quot;&gt;TCP三次握手&lt;/font&gt;" style="text;html=1;strokeColor=none;fillColor=none;align=center;verticalAlign=middle;whiteSpace=wrap;rounded=0;" vertex="1" parent="1">
          <mxGeometry x="300" y="110" width="160" height="30" as="geometry" />
        </mxCell>
      </root>
    </mxGraphModel>
  </diagram>
</mxfile>
